<svg id="svg" version="1.1" xmlns="http://www.w3.org/2000/svg" xmlns:xlink="http://www.w3.org/1999/xlink" width="400" height="482.7238335435057" viewBox="0, 0, 400,482.7238335435057"><g id="svgg"><path id="path0" d="M350.315 8.099 C 347.541 8.313,339.823 8.855,333.165 9.303 C 326.507 9.751,317.360 10.458,312.840 10.875 C 308.319 11.292,304.418 11.508,304.171 11.355 C 303.925 11.203,302.743 11.293,301.546 11.556 C 300.349 11.819,297.100 12.151,294.325 12.294 C 291.551 12.436,287.806 12.684,286.003 12.844 C 284.199 13.004,274.666 13.699,264.817 14.388 C 254.968 15.077,245.775 15.755,244.386 15.894 C 242.998 16.033,239.593 16.258,236.820 16.395 C 234.047 16.531,230.984 16.748,230.013 16.876 C 226.205 17.380,195.703 19.673,162.169 21.976 C 159.950 22.128,153.934 22.587,148.802 22.996 C 143.670 23.404,137.881 23.833,135.939 23.948 C 130.629 24.262,125.198 24.638,121.816 24.926 C 120.151 25.067,116.747 25.328,114.250 25.504 C 109.025 25.874,107.129 26.024,101.892 26.485 C 99.811 26.668,96.747 26.903,95.082 27.009 C 90.156 27.321,71.797 28.758,66.078 29.279 C 63.165 29.545,60.328 29.779,59.773 29.800 C 58.350 29.854,43.942 30.796,42.133 30.954 L 40.634 31.084 40.747 63.083 C 40.809 80.682,40.975 103.594,41.115 113.997 C 41.361 132.321,41.480 139.250,42.176 175.859 C 42.546 195.380,43.015 193.314,38.083 193.920 C 18.109 196.376,5.870 203.722,5.983 213.188 C 6.038 217.849,6.857 218.872,12.485 221.309 C 16.717 223.143,19.349 224.524,26.230 228.523 C 26.923 228.926,27.609 229.413,27.754 229.604 C 27.899 229.795,28.897 230.549,29.972 231.279 C 40.119 238.165,44.463 247.163,37.640 247.163 C 35.437 247.163,34.256 246.655,20.550 239.819 C 8.700 233.908,5.591 232.647,5.495 233.710 C 4.939 239.842,12.664 250.230,25.789 260.999 C 32.382 266.408,32.862 266.754,35.813 268.225 C 36.784 268.709,37.718 269.295,37.889 269.529 C 38.208 269.964,39.349 270.650,42.287 272.172 C 44.411 273.272,44.605 273.846,45.348 281.211 C 46.538 293.003,48.887 305.483,52.328 318.285 C 53.342 322.058,56.940 333.432,57.513 334.678 C 57.768 335.233,58.644 337.400,59.459 339.492 C 68.260 362.091,79.353 377.479,100.883 396.954 C 101.854 397.832,103.443 399.289,104.414 400.191 C 106.573 402.196,114.844 409.139,118.285 411.835 C 119.672 412.922,121.148 414.123,121.564 414.504 C 122.408 415.277,130.604 421.403,134.760 424.367 C 147.266 433.287,161.050 442.257,169.483 446.963 C 171.564 448.124,173.342 449.268,173.434 449.505 C 173.527 449.743,173.871 449.937,174.199 449.937 C 174.527 449.937,176.381 450.864,178.318 451.998 C 186.329 456.684,205.612 466.583,206.731 466.583 C 207.585 466.583,228.542 455.670,231.099 453.893 C 231.836 453.382,232.687 452.963,232.991 452.963 C 233.295 452.963,233.544 452.793,233.544 452.584 C 233.544 452.376,234.622 451.650,235.939 450.971 C 237.257 450.292,239.985 448.646,242.002 447.315 C 244.019 445.983,245.766 444.893,245.884 444.893 C 246.252 444.893,261.140 435.025,264.715 432.412 C 265.188 432.067,267.390 430.532,269.609 429.002 C 276.038 424.568,276.970 423.887,280.794 420.814 C 282.785 419.215,285.849 416.779,287.604 415.400 C 289.359 414.022,291.052 412.660,291.367 412.374 C 291.682 412.088,294.165 410.038,296.884 407.818 C 310.795 396.464,329.413 378.014,335.828 369.227 C 341.451 361.525,342.668 359.769,343.170 358.638 C 343.478 357.945,344.548 356.015,345.548 354.351 C 346.548 352.686,347.789 350.359,348.307 349.180 C 348.825 348.001,349.470 347.037,349.740 347.037 C 350.010 347.037,350.089 346.894,349.915 346.720 C 349.741 346.547,349.968 345.695,350.420 344.829 C 351.774 342.232,357.687 327.747,358.138 325.921 C 358.533 324.325,360.886 321.311,361.738 321.311 C 361.952 321.311,363.328 320.032,364.796 318.468 C 366.264 316.905,367.976 315.161,368.600 314.594 C 369.224 314.027,369.735 313.357,369.735 313.104 C 369.735 312.852,370.727 311.474,371.940 310.043 C 373.153 308.611,374.542 306.646,375.028 305.675 C 375.513 304.704,376.191 303.569,376.535 303.153 C 379.393 299.693,383.937 287.655,385.388 279.697 C 386.910 271.350,386.144 246.043,384.221 241.110 C 384.058 240.694,383.696 239.208,383.415 237.808 C 383.134 236.408,382.187 232.776,381.311 229.737 C 380.434 226.698,379.601 223.701,379.459 223.077 C 379.317 222.453,378.974 221.942,378.697 221.942 C 378.420 221.942,378.311 221.488,378.457 220.932 C 378.602 220.377,378.553 220.026,378.348 220.153 C 378.144 220.279,377.360 218.748,376.606 216.749 C 375.853 214.750,374.893 212.490,374.474 211.727 C 374.055 210.963,373.852 210.112,374.023 209.835 C 374.194 209.558,374.136 209.332,373.892 209.332 C 372.020 209.332,370.422 196.684,371.195 187.988 C 371.981 179.151,370.707 166.141,368.539 160.860 C 368.046 159.658,367.743 155.738,367.528 147.793 C 367.205 135.805,366.546 112.065,365.685 81.337 C 365.399 71.141,365.060 60.189,364.933 56.999 C 364.604 48.761,363.750 25.869,363.429 16.685 C 363.072 6.489,363.927 7.048,350.315 8.099 M345.720 29.895 C 345.872 31.624,346.132 38.146,346.298 44.388 C 346.464 50.631,346.675 56.646,346.766 57.756 C 346.857 58.865,347.089 65.786,347.282 73.135 C 347.474 80.484,347.700 86.613,347.784 86.754 C 347.868 86.896,348.103 94.048,348.307 102.648 C 348.510 111.248,348.741 119.760,348.819 121.564 C 349.545 138.217,349.426 139.161,345.262 149.811 C 344.883 150.782,343.288 154.868,341.720 158.890 C 335.324 175.290,330.246 183.667,325.693 185.326 C 323.500 186.126,309.151 187.856,300.378 188.378 C 295.170 188.689,282.710 188.005,268.852 186.648 C 263.956 186.169,262.465 186.578,263.315 188.167 C 263.606 188.711,264.045 189.155,264.291 189.155 C 264.537 189.155,265.948 190.289,267.426 191.675 C 268.904 193.061,271.362 194.820,272.888 195.584 C 274.414 196.348,275.776 197.087,275.914 197.226 C 276.053 197.364,277.642 198.159,279.445 198.991 C 281.248 199.823,282.837 200.624,282.976 200.771 C 283.115 200.917,284.250 201.478,285.498 202.018 C 286.747 202.557,287.907 203.195,288.077 203.434 C 288.246 203.673,288.587 203.879,288.833 203.890 C 289.492 203.921,290.548 204.299,292.812 205.312 C 293.922 205.808,296.532 206.925,298.613 207.793 C 300.694 208.661,302.790 209.590,303.272 209.856 C 303.754 210.122,304.457 210.340,304.836 210.340 C 305.215 210.340,306.580 210.902,307.869 211.587 C 309.159 212.273,310.214 212.714,310.214 212.566 C 310.214 212.419,310.498 212.476,310.845 212.692 C 311.192 212.909,311.702 213.135,311.980 213.195 C 312.257 213.255,314.300 214.013,316.520 214.880 C 318.739 215.747,320.816 216.509,321.134 216.573 C 321.453 216.637,322.042 216.962,322.442 217.294 C 322.842 217.626,323.314 217.754,323.489 217.578 C 323.665 217.402,324.129 217.524,324.521 217.849 C 324.912 218.174,327.121 219.129,329.428 219.971 C 334.047 221.657,336.444 222.913,336.444 223.648 C 336.444 223.912,336.588 223.984,336.764 223.808 C 337.266 223.305,341.167 227.528,342.263 229.760 C 342.808 230.870,343.501 232.005,343.803 232.282 C 344.106 232.560,344.715 233.808,345.158 235.057 C 349.564 247.479,348.743 258.406,343.021 263.512 C 342.061 264.368,340.869 265.467,340.373 265.952 C 339.876 266.438,339.470 266.686,339.470 266.504 C 339.470 266.323,339.073 266.513,338.588 266.928 C 333.955 270.884,317.905 272.390,306.936 269.897 C 305.826 269.645,303.556 269.164,301.892 268.828 C 300.227 268.493,297.503 267.884,295.839 267.476 C 294.174 267.069,292.438 266.661,291.980 266.571 C 290.779 266.335,285.895 264.745,284.930 264.276 C 284.478 264.057,283.284 263.723,282.276 263.533 C 281.268 263.344,280.316 262.985,280.161 262.734 C 280.007 262.484,279.669 262.409,279.410 262.569 C 279.152 262.728,278.941 262.619,278.941 262.325 C 278.941 262.031,278.563 261.791,278.101 261.791 C 277.639 261.791,275.540 260.955,273.435 259.933 C 271.331 258.911,269.496 258.041,269.357 257.999 C 268.294 257.678,266.050 256.619,265.836 256.337 C 265.692 256.146,264.717 255.554,263.670 255.021 C 260.209 253.260,261.133 249.804,265.507 248.153 C 269.506 246.643,273.690 244.926,274.149 244.605 C 274.426 244.411,275.388 244.096,276.287 243.903 C 278.614 243.406,278.695 242.893,276.743 241.008 C 274.507 238.849,273.392 237.967,273.392 238.358 C 273.392 238.531,272.541 238.005,271.501 237.190 C 270.460 236.374,269.116 235.449,268.513 235.133 C 267.911 234.817,267.105 234.246,266.723 233.864 C 266.341 233.482,265.359 232.819,264.540 232.391 C 263.722 231.962,262.550 231.138,261.938 230.560 C 261.325 229.981,260.604 229.508,260.335 229.508 C 260.065 229.508,259.539 229.224,259.165 228.878 C 257.858 227.666,255.270 225.977,254.720 225.977 C 254.414 225.977,254.305 225.750,254.477 225.473 C 254.648 225.195,254.427 224.968,253.986 224.968 C 253.545 224.968,253.053 224.628,252.894 224.212 C 252.734 223.796,252.280 223.455,251.885 223.455 C 251.490 223.455,251.036 223.115,250.876 222.699 C 250.716 222.282,250.359 221.942,250.082 221.942 C 249.357 221.942,246.382 219.337,246.532 218.834 C 246.602 218.602,246.318 218.411,245.902 218.411 C 245.485 218.411,245.145 218.199,245.145 217.941 C 245.145 217.682,244.726 217.337,244.214 217.175 C 243.206 216.855,235.165 208.937,227.491 200.708 C 215.876 188.253,215.852 188.236,211.294 189.214 C 209.942 189.504,208.714 189.940,208.563 190.183 C 208.413 190.426,207.957 190.496,207.550 190.340 C 207.143 190.184,206.810 190.265,206.810 190.521 C 206.810 191.128,203.529 192.686,202.253 192.686 C 201.707 192.686,201.261 192.875,201.261 193.106 C 201.261 193.338,200.977 193.555,200.631 193.589 C 200.284 193.623,197.957 194.250,195.460 194.982 C 180.310 199.423,160.735 201.334,146.240 199.787 C 143.071 199.449,139.458 199.069,138.209 198.943 C 136.961 198.816,134.805 198.498,133.417 198.237 C 132.030 197.975,128.625 197.410,125.851 196.980 C 123.077 196.550,119.672 195.983,118.285 195.719 C 106.867 193.550,85.739 192.037,65.743 191.956 C 62.092 191.941,58.984 191.811,58.839 191.666 C 58.693 191.521,58.445 184.031,58.287 175.021 C 58.128 166.010,57.893 154.779,57.763 150.063 C 57.535 141.758,57.135 108.227,56.772 66.959 C 56.675 55.931,56.751 46.811,56.940 46.694 C 57.286 46.481,59.526 46.300,73.140 45.383 C 77.163 45.112,83.405 44.674,87.011 44.410 C 90.618 44.145,97.201 43.687,101.639 43.390 C 106.078 43.094,112.774 42.628,116.520 42.355 C 125.725 41.683,155.740 39.592,174.275 38.330 C 182.598 37.764,194.174 36.969,200.000 36.564 C 205.826 36.160,218.764 35.266,228.752 34.578 C 238.739 33.889,250.202 33.090,254.224 32.801 C 258.247 32.513,266.419 31.937,272.383 31.523 C 288.806 30.382,325.854 27.796,332.409 27.332 C 335.599 27.107,339.837 26.884,341.827 26.837 L 345.445 26.751 345.720 29.895 M311.504 41.992 C 306.588 43.290,303.248 49.100,303.020 56.747 C 302.932 59.727,302.730 60.747,302.249 60.649 C 301.266 60.448,299.622 61.478,299.622 62.295 C 299.622 63.130,301.441 64.243,302.119 63.823 C 302.927 63.324,303.043 64.150,303.387 72.888 C 303.767 82.512,303.706 82.343,306.741 82.126 L 308.953 81.967 308.976 72.636 L 308.999 63.304 311.971 62.932 C 317.543 62.235,317.433 59.172,311.856 59.693 L 308.564 60.000 308.812 53.983 C 309.081 47.443,309.708 45.670,311.950 45.107 C 313.995 44.594,315.192 45.288,315.549 47.191 C 316.055 49.886,319.939 49.210,320.575 46.316 C 321.372 42.687,316.915 40.562,311.504 41.992 M248.424 46.831 C 244.271 47.827,242.987 49.716,246.249 50.029 L 247.919 50.189 248.277 63.052 C 248.999 88.976,248.485 86.277,252.560 85.513 L 254.325 85.181 254.149 76.596 L 253.972 68.011 255.670 67.297 C 262.742 64.321,263.865 66.415,264.279 83.354 C 264.307 84.525,264.529 84.740,265.700 84.735 C 269.490 84.716,269.357 85.042,269.357 75.806 C 269.357 62.523,267.466 60.597,257.522 63.755 L 253.720 64.962 253.701 58.837 C 253.679 52.031,253.377 47.074,252.939 46.367 C 252.592 45.805,252.782 45.785,248.424 46.831 M184.551 51.175 C 180.904 52.180,179.480 53.972,182.328 53.972 C 184.250 53.972,184.468 55.046,184.630 65.322 C 184.713 70.593,184.813 75.927,184.851 77.175 C 184.889 78.424,184.965 81.801,185.020 84.681 L 185.120 89.917 187.415 89.658 C 188.677 89.516,189.843 89.266,190.006 89.103 C 190.504 88.605,189.840 51.717,189.316 50.820 C 189.008 50.292,187.292 50.419,184.551 51.175 M171.248 52.343 C 168.585 53.265,167.855 54.605,169.862 54.890 C 171.617 55.139,171.892 56.244,171.959 63.304 C 172.077 75.791,172.610 90.040,172.973 90.427 C 173.174 90.641,174.230 90.631,175.320 90.405 L 177.301 89.993 177.428 77.153 C 177.498 70.091,177.384 61.475,177.176 58.008 L 176.797 51.702 175.284 51.587 C 174.451 51.523,172.636 51.863,171.248 52.343 M284.443 61.000 C 270.787 63.668,271.274 83.725,284.994 83.713 C 291.787 83.708,296.641 79.488,297.413 72.918 C 298.329 65.127,292.189 59.486,284.443 61.000 M90.794 62.322 C 81.952 63.210,80.454 63.575,80.454 64.838 C 80.454 65.519,80.803 65.830,81.578 65.841 C 83.517 65.866,83.612 66.496,83.902 81.211 C 84.057 89.117,84.196 95.643,84.211 95.712 C 84.225 95.782,85.013 95.839,85.961 95.839 C 89.338 95.839,89.281 95.973,89.281 87.944 C 89.281 82.411,89.433 80.682,89.912 80.744 C 90.259 80.789,92.755 80.799,95.460 80.766 L 100.378 80.706 100.378 79.223 C 100.378 77.117,99.855 76.981,94.538 77.711 C 88.779 78.502,89.326 79.124,89.164 71.594 L 89.029 65.322 93.148 64.878 C 98.736 64.276,99.718 64.589,100.943 67.358 C 101.760 69.205,102.178 69.609,103.273 69.609 C 104.449 69.609,104.508 69.535,103.771 68.979 C 103.176 68.529,102.895 67.405,102.792 65.069 L 102.648 61.791 100.126 61.715 C 98.739 61.673,94.540 61.946,90.794 62.322 M232.119 64.781 C 230.643 65.147,229.178 65.702,228.866 66.014 C 228.025 66.855,226.095 66.704,225.564 65.755 C 225.006 64.757,218.439 66.090,217.330 67.427 C 216.649 68.247,217.539 69.204,218.618 68.811 C 220.329 68.188,220.619 69.441,220.842 78.440 C 221.087 88.329,221.029 88.189,224.474 87.261 L 226.607 86.686 226.358 78.379 L 226.109 70.071 227.504 69.350 C 230.549 67.775,232.848 67.827,234.530 69.509 L 236.066 71.045 236.066 78.666 C 236.066 87.186,236.116 87.299,239.526 86.456 L 241.362 86.003 241.406 78.463 C 241.482 65.298,239.833 62.869,232.119 64.781 M289.597 66.207 C 293.133 70.361,291.840 79.682,287.631 80.375 C 282.665 81.192,279.743 76.904,280.481 69.882 C 281.112 63.874,285.951 61.924,289.597 66.207 M204.284 66.549 C 194.356 69.569,191.868 83.655,200.471 88.129 C 204.071 90.001,216.604 86.687,215.620 84.124 C 215.352 83.425,215.027 83.415,212.703 84.040 C 206.701 85.653,202.399 83.945,200.859 79.336 C 200.236 77.472,200.339 77.438,210.088 76.384 C 213.753 75.988,214.376 75.542,214.376 73.314 C 214.376 67.928,209.811 64.868,204.284 66.549 M156.782 69.808 C 145.108 72.952,145.186 91.814,156.873 91.796 C 160.910 91.790,167.970 89.026,167.970 87.453 C 167.970 86.625,167.920 86.626,161.823 87.578 C 158.164 88.149,153.342 84.925,153.342 81.907 C 153.342 80.613,153.746 80.491,160.808 79.650 C 166.737 78.943,167.276 78.518,166.685 75.016 C 165.843 70.033,162.491 68.271,156.782 69.808 M208.035 70.402 C 209.723 72.090,209.061 74.053,206.683 74.403 C 201.777 75.125,201.022 75.019,200.856 73.586 C 200.525 70.738,205.960 68.327,208.035 70.402 M141.740 70.454 C 141.324 70.619,140.098 71.173,139.015 71.686 C 137.200 72.546,137.000 72.554,136.442 71.791 C 135.782 70.888,131.435 71.138,130.437 72.136 C 130.162 72.411,129.528 72.636,129.029 72.636 C 128.457 72.636,128.121 73.009,128.121 73.644 C 128.121 74.429,128.457 74.653,129.634 74.653 C 130.467 74.653,131.160 74.710,131.176 74.779 C 131.192 74.849,131.318 78.764,131.456 83.480 C 131.758 93.803,131.636 93.337,133.953 93.040 C 136.772 92.679,136.744 92.773,136.671 84.221 C 136.595 75.230,136.556 75.383,139.077 74.687 C 141.145 74.116,142.245 74.651,142.245 76.228 C 142.245 77.304,143.304 77.449,144.926 76.595 C 148.958 74.473,146.001 68.773,141.740 70.454 M110.243 73.164 C 105.980 75.290,103.783 78.957,103.783 83.943 C 103.783 97.129,121.728 98.224,125.136 85.246 C 127.449 76.434,118.401 69.093,110.243 73.164 M160.710 73.518 C 162.190 75.467,161.606 77.012,159.269 77.332 C 158.090 77.494,156.168 77.780,154.999 77.967 L 152.872 78.307 153.298 76.824 C 153.880 74.794,154.925 73.213,155.849 72.962 C 157.829 72.425,160.075 72.682,160.710 73.518 M117.567 76.795 C 122.133 81.793,120.440 91.299,114.983 91.299 C 110.229 91.299,107.167 83.362,109.789 77.837 C 111.289 74.676,115.158 74.157,117.567 76.795 M276.671 90.107 C 272.137 91.028,265.100 93.157,263.405 94.121 C 262.106 94.860,264.221 96.847,266.307 96.847 C 270.074 96.847,270.367 97.452,270.630 105.738 C 271.022 118.079,271.351 132.462,271.657 150.567 C 271.822 160.277,272.045 168.506,272.154 168.852 C 272.549 170.111,281.159 169.213,282.093 167.816 C 282.314 167.484,282.349 159.689,282.169 150.492 C 281.797 131.393,281.238 133.582,286.969 131.704 C 293.940 129.419,299.270 130.598,301.147 134.839 C 302.544 137.998,302.686 139.670,302.799 154.183 C 302.855 161.442,303.076 167.558,303.291 167.773 C 303.830 168.311,312.165 167.229,312.864 166.531 C 314.380 165.014,313.135 131.848,311.441 128.625 C 310.650 127.121,308.197 124.260,308.197 124.842 C 308.197 125.067,307.736 124.834,307.174 124.325 C 304.405 121.820,292.082 123.734,283.844 127.949 C 281.702 129.045,281.674 128.917,281.553 117.435 C 281.420 104.698,280.941 90.696,280.622 90.164 C 280.388 89.774,278.449 89.747,276.671 90.107 M150.567 97.878 C 149.735 98.111,146.743 98.905,143.918 99.644 C 138.766 100.991,138.061 101.466,138.533 103.272 C 138.735 104.047,139.238 104.245,140.994 104.245 C 145.510 104.245,145.149 101.047,146.091 149.306 C 146.272 158.600,146.485 166.545,146.564 166.961 C 146.643 167.377,146.728 169.306,146.753 171.248 C 146.819 176.225,146.863 176.264,151.549 175.508 C 156.886 174.647,156.912 174.608,156.657 167.810 C 156.541 164.707,156.306 154.792,156.135 145.776 C 155.964 136.759,155.728 127.226,155.610 124.590 C 155.492 121.955,155.362 115.157,155.320 109.485 C 155.228 96.909,155.105 96.609,150.567 97.878 M108.197 108.997 C 103.186 109.265,95.943 110.282,90.542 111.476 C 89.433 111.721,87.900 112.053,87.137 112.213 C 85.935 112.465,85.750 112.745,85.750 114.317 L 85.750 116.130 88.013 115.790 C 91.875 115.211,92.811 116.652,92.816 123.180 C 92.818 126.036,92.916 130.530,93.033 133.165 C 93.151 135.801,93.401 145.107,93.588 153.846 C 93.882 167.564,94.130 176.092,94.284 177.754 C 94.343 178.396,102.917 177.664,103.786 176.942 C 104.475 176.371,104.398 157.842,103.651 144.010 C 103.066 133.194,103.161 115.553,103.808 114.906 C 106.076 112.636,116.624 114.367,120.324 117.615 C 126.616 123.140,126.210 136.734,119.606 141.616 C 117.209 143.388,110.931 145.759,108.605 145.770 C 107.202 145.777,106.820 146.402,107.227 148.022 C 107.637 149.655,109.486 149.716,115.418 148.294 C 129.137 145.005,136.192 137.679,136.192 126.722 C 136.192 113.504,127.449 107.969,108.197 108.997 M242.256 126.801 C 230.416 129.793,223.530 138.195,223.080 150.200 C 222.440 167.271,234.630 175.507,251.702 169.539 C 256.161 167.980,262.799 165.063,262.799 164.662 C 262.799 164.565,262.527 163.889,262.195 163.159 C 261.530 161.701,261.909 161.699,255.485 163.197 C 239.928 166.827,229.386 155.667,233.598 140.026 C 236.198 130.370,250.300 128.778,250.825 138.081 L 250.946 140.222 253.367 140.224 C 261.147 140.233,263.358 131.406,256.540 127.555 C 254.015 126.129,246.487 125.732,242.256 126.801 M205.044 129.498 C 196.138 131.777,194.956 132.296,194.956 133.920 C 194.956 135.363,195.043 135.424,196.874 135.266 C 201.386 134.877,201.562 135.505,202.022 153.657 L 202.292 164.313 199.633 165.360 C 191.254 168.661,186.067 168.026,183.588 163.396 C 182.560 161.474,182.480 160.475,182.151 145.422 C 181.805 129.556,181.870 129.819,178.474 130.361 C 171.427 131.488,165.195 133.869,165.195 135.435 C 165.195 136.880,165.281 136.941,167.111 136.780 C 171.677 136.379,171.883 137.038,172.210 153.090 C 172.466 165.638,172.429 165.264,173.705 168.215 C 177.008 175.850,184.681 176.300,199.933 169.753 C 201.658 169.012,203.892 169.038,203.140 169.790 C 202.355 170.575,203.929 173.014,205.220 173.011 C 211.838 172.996,213.569 171.908,212.928 168.162 C 212.500 165.659,211.853 146.313,211.784 133.931 C 211.752 128.296,211.188 127.925,205.044 129.498 M356.746 142.739 C 360.293 145.530,364.067 154.700,364.541 161.679 C 364.926 167.350,363.989 167.731,361.634 162.863 C 358.143 155.647,356.799 156.888,359.927 164.439 C 360.904 166.797,361.803 169.164,361.924 169.698 C 362.046 170.233,362.321 170.800,362.535 170.959 C 362.882 171.216,362.959 172.490,362.745 174.411 C 362.522 176.411,358.508 173.715,356.083 169.935 C 354.536 167.526,353.356 166.627,352.838 167.464 C 352.477 168.049,353.059 170.441,353.882 171.753 C 357.058 176.813,357.656 181.459,355.273 182.545 C 353.476 183.364,351.990 182.306,350.011 178.801 C 347.647 174.611,346.751 176.305,348.284 182.065 C 348.850 184.191,348.880 184.989,348.421 185.596 C 348.094 186.028,347.783 186.454,347.731 186.544 C 347.528 186.888,344.515 185.069,344.515 184.602 C 344.515 183.873,343.011 184.006,342.944 184.741 C 342.913 185.088,342.856 186.999,342.818 188.988 C 342.719 194.189,340.122 196.937,338.151 193.928 C 336.965 192.119,336.232 192.627,335.939 195.460 C 335.536 199.366,333.525 198.233,332.659 193.611 C 332.186 191.089,334.791 184.481,336.570 183.691 C 336.778 183.598,336.948 183.217,336.948 182.844 C 336.948 182.471,337.236 181.865,337.588 181.499 C 337.939 181.132,338.655 179.868,339.178 178.689 C 339.700 177.509,340.284 176.545,340.475 176.545 C 340.666 176.545,341.122 175.637,341.488 174.527 C 341.854 173.417,342.355 172.509,342.600 172.509 C 342.845 172.509,342.999 172.226,342.941 171.879 C 342.884 171.532,343.328 170.151,343.928 168.811 C 344.528 167.470,345.019 166.051,345.019 165.658 C 345.019 165.265,345.216 164.943,345.458 164.943 C 345.699 164.943,346.188 163.865,346.545 162.547 C 346.901 161.230,347.343 159.924,347.527 159.647 C 347.711 159.369,348.617 156.646,349.540 153.594 C 350.464 150.542,351.413 147.830,351.650 147.566 C 351.887 147.303,352.081 146.614,352.081 146.035 C 352.081 145.064,354.458 141.757,355.165 141.745 C 355.336 141.743,356.047 142.190,356.746 142.739 M366.004 181.345 C 367.493 183.618,365.739 191.414,364.106 189.781 C 363.520 189.195,362.906 182.015,363.344 180.873 C 363.801 179.685,365.063 179.908,366.004 181.345 M357.377 188.146 C 357.553 188.701,357.871 189.155,358.084 189.155 C 358.296 189.155,358.477 189.439,358.485 189.786 C 358.493 190.132,359.137 191.778,359.916 193.443 C 361.614 197.069,361.613 198.011,359.915 199.709 C 356.519 203.105,351.381 193.553,353.798 188.338 C 354.514 186.793,356.907 186.664,357.377 188.146 M320.840 191.174 C 322.768 191.709,326.523 194.645,327.417 196.316 C 328.466 198.275,327.137 198.467,324.191 196.782 C 321.419 195.195,319.798 194.795,319.798 195.697 C 319.798 195.967,320.712 196.704,321.829 197.337 C 323.976 198.552,324.838 200.302,323.867 201.473 C 323.014 202.501,321.257 202.129,318.264 200.287 C 314.450 197.941,313.239 197.539,313.249 198.625 C 313.258 199.714,313.718 200.351,315.006 201.060 C 316.265 201.753,316.693 204.288,315.551 204.288 C 315.120 204.288,312.921 203.266,310.664 202.018 C 306.654 199.800,303.866 199.084,304.278 200.378 C 304.389 200.725,304.975 201.233,305.581 201.507 C 306.187 201.781,306.683 202.178,306.683 202.389 C 306.683 202.601,306.995 202.774,307.377 202.774 C 308.494 202.774,312.613 205.257,312.950 206.133 C 313.812 208.382,311.149 209.018,307.389 207.462 C 305.753 206.784,303.960 206.139,303.405 206.027 C 302.850 205.915,301.497 205.365,300.398 204.804 C 299.299 204.242,298.007 203.783,297.527 203.783 C 297.047 203.783,296.514 203.556,296.343 203.279 C 296.172 203.001,295.557 202.774,294.976 202.774 C 294.396 202.774,292.764 202.228,291.349 201.560 C 289.934 200.892,286.587 199.516,283.910 198.501 C 277.395 196.032,274.816 194.347,275.010 192.686 L 275.158 191.425 293.064 191.163 C 302.913 191.019,312.787 190.850,315.006 190.788 C 317.226 190.725,319.851 190.899,320.840 191.174 M212.929 194.977 C 213.573 195.181,213.871 195.754,213.871 196.785 C 213.871 197.615,213.664 198.166,213.410 198.009 C 213.156 197.852,212.866 197.972,212.765 198.275 C 212.582 198.825,210.916 199.488,202.774 202.252 C 196.340 204.436,179.878 208.390,174.527 209.035 C 173.279 209.186,171.690 209.429,170.996 209.575 C 165.594 210.713,156.410 211.141,154.048 210.364 C 153.243 210.100,151.861 209.781,150.977 209.656 C 148.558 209.315,146.764 206.818,148.928 206.806 C 150.257 206.798,169.732 205.268,170.962 205.075 C 171.674 204.963,173.960 204.715,176.040 204.524 C 181.294 204.042,187.423 202.680,193.920 200.549 C 196.957 199.554,199.638 198.739,199.879 198.739 C 200.265 198.739,201.503 198.222,207.501 195.553 C 209.185 194.804,211.582 194.549,212.929 194.977 M351.018 197.654 C 352.343 199.516,353.180 203.177,352.549 204.356 C 350.319 208.521,347.170 206.014,346.949 199.898 C 346.818 196.236,349.109 194.973,351.018 197.654 M331.427 203.279 C 334.277 208.727,334.488 211.408,332.095 211.753 C 330.726 211.950,325.851 206.281,325.851 204.492 C 325.851 201.314,329.934 200.425,331.427 203.279 M219.221 202.863 C 221.336 204.979,213.994 209.903,210.194 208.917 C 209.975 208.860,209.336 209.060,208.774 209.360 C 208.212 209.661,207.370 209.989,206.903 210.090 C 206.435 210.191,203.216 210.992,199.748 211.869 C 196.280 212.747,192.762 213.579,191.929 213.718 C 191.097 213.857,190.076 214.150,189.660 214.369 C 189.243 214.588,187.541 215.060,185.876 215.417 C 184.212 215.774,182.509 216.143,182.093 216.236 C 179.000 216.931,174.678 216.574,173.559 215.530 C 171.082 213.223,172.922 212.158,180.328 211.612 C 185.486 211.232,186.759 211.099,189.407 210.668 C 190.240 210.532,191.942 210.262,193.190 210.068 C 194.439 209.874,196.255 209.432,197.226 209.087 C 198.197 208.741,200.580 207.939,202.522 207.305 C 204.464 206.670,206.301 205.961,206.604 205.728 C 206.907 205.495,207.304 205.454,207.487 205.637 C 207.669 205.820,207.818 205.704,207.818 205.380 C 207.818 205.057,208.162 204.792,208.582 204.792 C 209.002 204.792,209.739 204.576,210.221 204.312 C 214.615 201.904,217.756 201.399,219.221 202.863 M340.999 203.292 C 341.801 203.954,342.354 204.598,342.229 204.723 C 342.104 204.849,342.227 205.223,342.503 205.555 C 343.155 206.342,343.468 209.081,342.993 209.849 C 342.289 210.988,340.469 209.771,338.668 206.957 C 335.866 202.576,337.336 200.266,340.999 203.292 M224.464 210.010 C 224.464 209.808,224.797 210.084,225.205 210.622 C 227.108 213.138,225.412 214.840,220.177 215.667 C 218.789 215.886,217.541 216.093,217.402 216.126 C 217.264 216.160,216.242 216.354,215.132 216.558 C 212.722 217.001,200.321 219.947,199.243 220.333 C 195.024 221.841,188.833 222.645,188.486 221.730 C 187.792 219.903,194.167 216.393,198.180 216.393 C 198.485 216.393,200.155 215.902,201.890 215.302 C 203.625 214.701,205.498 214.139,206.053 214.053 C 206.608 213.966,209.445 213.188,212.358 212.323 C 220.536 209.896,222.605 209.456,223.581 209.939 C 224.067 210.179,224.464 210.211,224.464 210.010 M329.376 213.151 C 332.062 215.193,333.324 217.246,332.030 217.467 C 330.200 217.778,329.202 217.552,326.353 216.181 C 321.756 213.968,321.289 211.182,325.467 210.903 C 325.950 210.871,327.709 211.883,329.376 213.151 M339.092 213.730 C 342.147 216.483,342.834 221.454,340.211 221.835 C 339.082 221.999,335.809 218.427,335.308 216.485 C 334.472 213.241,336.727 211.599,339.092 213.730 M20.429 216.151 C 22.093 216.837,23.592 217.399,23.759 217.400 C 24.428 217.405,34.699 223.237,36.822 224.818 C 38.071 225.748,39.765 227.013,40.588 227.630 C 54.103 237.763,65.295 257.755,57.453 257.755 C 56.408 257.755,50.946 252.971,50.946 252.055 C 50.946 251.775,50.418 250.843,49.774 249.985 C 49.129 249.126,48.466 248.055,48.301 247.605 C 48.135 247.154,46.960 245.267,45.690 243.411 C 44.419 241.556,43.380 239.874,43.380 239.674 C 43.380 239.102,35.315 230.982,32.531 228.752 C 31.146 227.642,29.937 226.564,29.844 226.356 C 29.752 226.148,29.447 225.977,29.166 225.977 C 28.885 225.977,27.940 225.467,27.066 224.842 C 24.914 223.306,22.084 221.711,18.159 219.822 C 13.259 217.464,11.938 216.448,12.651 215.588 C 13.549 214.505,17.050 214.759,20.429 216.151 M63.470 217.711 C 70.365 220.412,72.250 224.764,68.853 230.134 C 65.818 234.931,56.148 235.494,52.989 231.058 C 50.606 227.710,52.887 226.158,56.331 228.785 C 58.957 230.788,61.131 230.942,62.485 229.221 C 64.266 226.957,63.368 223.986,60.550 222.819 C 57.855 221.703,57.076 221.850,54.860 223.892 C 51.771 226.740,50.734 226.792,50.540 224.110 C 50.101 218.069,56.411 214.946,63.470 217.711 M230.942 217.436 C 234.098 220.376,229.406 222.996,215.637 225.983 C 214.527 226.223,211.690 226.886,209.332 227.456 C 203.194 228.939,198.739 228.626,198.739 226.711 C 198.739 226.191,200.955 224.345,201.765 224.190 C 202.789 223.994,207.511 222.599,212.610 220.985 C 215.939 219.931,220.139 218.656,221.942 218.151 C 223.745 217.645,225.380 217.100,225.575 216.939 C 226.522 216.154,229.902 216.467,230.942 217.436 M243.632 222.785 C 243.632 224.480,237.828 228.520,236.538 227.723 C 236.278 227.562,236.066 227.633,236.066 227.880 C 236.066 228.127,234.987 228.606,233.670 228.943 C 229.410 230.035,228.237 230.412,228.752 230.523 C 229.029 230.584,228.462 230.812,227.491 231.031 C 226.520 231.250,223.228 232.136,220.177 233.000 C 214.644 234.565,212.865 234.627,211.541 233.302 C 210.439 232.201,210.726 231.039,212.232 230.504 C 212.995 230.234,213.988 229.801,214.440 229.542 C 214.891 229.284,216.140 228.908,217.214 228.707 C 218.289 228.506,219.849 228.059,220.681 227.715 C 221.965 227.184,231.933 224.391,235.266 223.629 C 238.572 222.873,243.632 222.362,243.632 222.785 M252.163 228.878 C 253.644 229.721,254.329 231.526,253.167 231.526 C 252.863 231.526,252.009 231.957,251.268 232.485 C 249.870 233.480,241.256 236.570,239.878 236.570 C 239.446 236.570,239.092 236.797,239.092 237.074 C 239.092 237.352,238.723 237.579,238.272 237.579 C 237.821 237.579,235.112 238.274,232.252 239.124 C 226.244 240.911,223.290 240.963,223.051 239.288 C 222.939 238.504,223.338 238.016,224.564 237.439 C 227.004 236.291,231.993 234.109,232.419 234.003 C 232.857 233.894,233.963 233.450,237.265 232.058 C 238.618 231.488,240.150 231.021,240.669 231.021 C 241.189 231.021,241.614 230.794,241.614 230.517 C 241.614 230.240,241.898 230.011,242.245 230.010 C 242.591 230.008,243.523 229.669,244.315 229.256 C 245.107 228.843,245.956 228.629,246.202 228.782 C 246.449 228.934,247.049 228.826,247.537 228.542 C 248.856 227.774,250.424 227.888,252.163 228.878 M134.026 230.785 C 136.716 231.613,136.609 235.228,133.860 236.376 C 131.550 237.341,131.716 238.126,134.543 239.607 C 135.856 240.295,137.234 241.141,137.606 241.488 C 137.977 241.835,138.531 242.119,138.836 242.119 C 139.141 242.119,140.770 242.769,142.457 243.563 C 150.457 247.332,150.223 247.301,151.576 244.765 C 152.551 242.939,155.359 241.698,155.359 243.094 C 155.359 243.390,155.530 243.605,155.738 243.572 C 157.432 243.305,158.427 245.483,157.073 246.494 C 155.699 247.520,156.517 248.731,159.773 250.491 C 161.507 251.429,162.929 252.028,162.933 251.823 C 162.938 251.618,163.108 251.699,163.312 252.004 C 163.515 252.308,165.328 252.957,167.339 253.445 C 169.351 253.934,170.996 254.507,170.996 254.719 C 170.996 254.931,171.961 255.281,173.140 255.498 C 174.319 255.714,175.397 255.933,175.536 255.984 C 175.675 256.035,176.129 256.217,176.545 256.388 C 176.961 256.560,178.663 257.066,180.328 257.514 C 181.992 257.962,183.695 258.458,184.111 258.617 C 184.527 258.775,185.208 258.959,185.624 259.027 C 186.040 259.094,187.292 259.487,188.405 259.901 C 189.519 260.314,191.391 260.815,192.567 261.014 C 193.742 261.212,194.704 261.532,194.704 261.725 C 194.704 261.918,195.291 262.124,196.010 262.183 C 196.728 262.243,197.579 262.459,197.901 262.664 C 198.223 262.869,198.600 263.051,198.739 263.069 C 200.276 263.267,201.261 264.038,201.261 265.042 C 201.261 267.642,198.459 267.800,193.389 265.487 C 191.754 264.741,190.303 264.096,190.164 264.054 C 190.025 264.012,188.815 263.486,187.474 262.884 C 186.133 262.283,184.742 261.791,184.383 261.791 C 184.024 261.791,182.898 261.443,181.881 261.018 C 179.712 260.112,179.120 260.327,179.423 261.912 C 179.553 262.595,179.244 263.527,178.665 264.194 C 176.709 266.450,174.877 265.139,174.949 261.535 C 175.006 258.716,174.648 258.459,167.213 255.983 C 164.161 254.967,160.984 253.849,160.151 253.499 C 159.319 253.149,157.844 252.563,156.873 252.198 C 155.902 251.832,154.880 251.376,154.603 251.183 C 153.081 250.126,151.360 250.224,149.903 251.450 C 147.501 253.471,145.437 252.708,146.736 250.279 C 147.220 249.375,146.961 249.156,143.994 247.969 C 137.381 245.321,132.888 242.737,131.148 240.579 C 131.009 240.407,128.479 238.976,125.526 237.398 C 119.748 234.312,118.757 233.500,119.239 232.243 C 119.504 231.554,120.034 231.701,122.844 233.246 C 126.792 235.416,127.842 235.529,127.942 233.796 C 128.100 231.052,130.704 229.764,134.026 230.785 M95.586 234.916 C 101.890 237.099,102.271 241.802,96.200 242.486 C 93.563 242.783,93.190 243.506,94.830 245.145 C 96.396 246.711,99.421 245.606,100.844 242.948 C 102.102 240.598,105.822 239.916,109.348 241.389 C 110.379 241.820,111.304 242.144,111.404 242.109 C 111.838 241.955,113.997 245.691,113.997 246.595 C 113.997 248.711,110.537 250.739,107.355 250.488 C 103.992 250.222,102.396 250.547,102.396 251.497 C 102.396 253.563,107.331 253.903,112.985 252.225 C 117.560 250.868,121.059 251.978,121.059 254.787 C 121.059 257.804,118.589 258.623,113.569 257.271 C 110.086 256.333,107.752 257.112,109.097 258.764 C 109.792 259.617,110.095 259.710,114.071 260.281 C 117.942 260.837,119.042 261.498,119.042 263.267 C 119.042 264.860,115.948 269.686,115.057 269.483 C 114.752 269.414,114.502 269.556,114.502 269.800 C 114.502 271.579,107.972 271.659,106.088 269.903 C 103.796 267.768,101.260 269.028,103.447 271.215 C 104.491 272.259,103.773 274.135,102.263 274.309 C 101.190 274.432,100.435 274.019,98.984 272.516 C 96.179 269.608,93.680 269.402,89.930 271.770 C 87.987 272.997,82.962 273.175,80.943 272.088 C 78.477 270.760,78.741 269.803,82.049 268.075 C 83.620 267.254,85.439 266.285,86.091 265.921 C 92.661 262.258,94.672 250.477,89.548 245.664 C 87.804 244.025,87.450 244.666,88.224 248.062 C 89.517 253.734,89.512 256.422,88.204 259.081 C 83.924 267.779,71.183 271.249,72.632 263.322 C 73.105 260.738,72.640 260.122,70.168 260.060 C 67.537 259.994,66.723 259.136,66.082 255.756 C 65.552 252.963,61.671 244.353,59.962 242.177 C 57.917 239.574,58.898 238.460,63.808 237.808 C 68.687 237.159,68.947 237.301,69.372 240.838 C 69.742 243.925,69.874 244.136,71.437 244.136 C 74.647 244.136,75.741 241.544,73.392 239.502 C 71.809 238.125,71.800 237.315,73.356 236.295 C 75.667 234.781,77.769 235.486,79.058 238.209 C 80.276 240.783,80.711 241.032,81.903 239.841 C 82.323 239.421,83.872 238.853,85.344 238.580 C 87.118 238.250,88.316 237.700,88.897 236.948 C 91.416 233.690,91.752 233.588,95.586 234.916 M261.034 236.033 C 261.034 237.129,260.666 237.355,257.642 238.118 C 255.776 238.589,253.846 239.152,253.354 239.368 C 252.862 239.584,252.346 239.796,252.207 239.839 C 252.068 239.882,248.323 241.074,243.884 242.489 C 233.284 245.869,233.183 245.888,232.791 244.653 C 232.180 242.727,235.555 240.522,241.614 238.890 C 243.417 238.404,247.163 237.358,249.937 236.566 C 256.686 234.638,256.704 234.635,259.016 234.725 C 260.797 234.795,261.034 234.949,261.034 236.033 M17.150 242.224 C 18.676 242.938,21.400 244.140,23.203 244.897 C 25.006 245.654,27.163 246.572,27.995 246.939 C 28.827 247.305,30.530 248.050,31.778 248.595 C 42.720 253.368,43.346 253.800,44.682 257.503 C 45.177 258.875,46.120 259.748,50.738 263.114 C 52.467 264.374,51.450 266.413,49.272 266.051 C 36.761 263.977,33.253 262.290,25.339 254.546 C 21.898 251.179,17.400 246.776,15.342 244.763 C 11.465 240.969,9.953 237.892,12.989 239.975 C 13.752 240.499,15.624 241.511,17.150 242.224 M268.698 240.426 C 269.247 241.856,266.772 242.973,255.485 246.390 C 252.989 247.146,250.038 248.076,248.928 248.456 C 242.835 250.546,237.852 247.829,243.672 245.590 C 247.211 244.229,247.878 243.992,248.578 243.848 C 248.941 243.774,250.757 243.260,252.614 242.707 C 256.114 241.664,260.304 240.743,263.232 240.374 C 264.163 240.257,265.052 240.034,265.208 239.879 C 265.850 239.236,268.395 239.635,268.698 240.426 M171.180 242.440 C 172.883 244.143,172.853 244.879,171.004 246.728 C 167.950 249.782,162.961 247.336,164.959 243.765 C 166.499 241.011,169.180 240.440,171.180 242.440 M192.877 244.377 C 196.431 247.434,193.716 252.711,188.589 252.711 C 186.308 252.711,185.120 251.464,185.120 249.069 C 185.120 243.891,189.342 241.337,192.877 244.377 M259.409 249.100 C 255.849 252.147,252.545 253.386,252.802 251.576 C 252.986 250.283,257.641 247.696,259.773 247.704 C 261.031 247.708,261.030 247.712,259.409 249.100 M355.816 248.929 C 356.622 249.622,357.105 250.189,356.889 250.189 C 356.673 250.189,356.758 250.504,357.078 250.889 C 357.876 251.851,356.851 254.044,355.424 254.427 C 351.228 255.553,348.799 251.697,351.955 248.920 C 353.701 247.383,354.019 247.383,355.816 248.929 M73.260 249.766 C 72.377 250.650,72.483 251.408,73.635 252.450 C 74.930 253.623,76.290 252.664,76.066 250.737 C 75.896 249.278,74.300 248.726,73.260 249.766 M204.958 250.730 C 207.149 253.288,206.526 259.391,204.220 257.966 C 203.980 257.817,203.783 257.879,203.782 258.104 C 203.779 259.526,197.548 258.612,196.853 257.087 C 194.739 252.447,201.732 246.962,204.958 250.730 M84.038 254.674 C 82.502 256.277,82.562 258.273,84.145 258.244 C 85.291 258.223,86.864 255.968,86.666 254.629 C 86.429 253.015,85.614 253.028,84.038 254.674 M218.252 256.938 C 217.884 257.897,218.788 258.557,220.625 258.673 C 221.427 258.723,222.341 259.118,222.657 259.549 C 223.154 260.229,223.549 260.248,225.613 259.697 C 231.508 258.120,237.101 261.962,233.614 265.194 C 232.939 265.819,232.544 266.330,232.736 266.330 C 233.547 266.330,230.493 268.839,229.326 269.132 C 226.744 269.780,221.549 267.073,222.187 265.412 C 222.465 264.686,221.852 264.721,219.041 265.592 C 218.068 265.893,217.788 265.665,217.095 264.006 L 216.285 262.067 215.330 263.246 C 213.442 265.578,214.636 267.373,218.778 268.431 C 219.825 268.698,222.043 269.260,223.707 269.679 C 230.953 271.503,232.435 271.888,235.057 272.627 C 236.583 273.058,238.285 273.505,238.840 273.621 C 243.468 274.590,244.760 274.893,247.415 275.632 C 251.919 276.887,255.057 277.446,259.269 277.743 C 261.349 277.890,263.506 278.296,264.061 278.646 C 264.615 278.995,266.658 279.805,268.600 280.445 C 270.542 281.085,272.525 281.803,273.007 282.040 C 273.489 282.277,274.355 282.472,274.932 282.472 C 275.509 282.472,276.380 282.685,276.868 282.946 C 279.968 284.606,298.571 285.830,300.030 284.471 C 301.385 283.208,301.552 283.231,303.569 284.957 L 305.246 286.392 314.414 286.166 C 323.813 285.934,334.545 284.669,339.470 283.213 C 340.996 282.762,343.493 282.041,345.019 281.611 C 353.730 279.156,356.405 277.554,358.320 273.644 C 359.709 270.807,360.298 270.438,361.716 271.517 C 364.405 273.566,359.832 280.341,355.174 281.210 C 353.287 281.562,352.575 282.129,350.727 284.754 C 350.022 285.754,349.159 286.320,348.218 286.397 C 345.917 286.585,343.628 287.494,340.865 289.313 C 337.139 291.767,334.109 292.239,324.793 291.817 C 318.078 291.512,316.668 291.579,315.348 292.262 C 313.707 293.110,309.206 293.373,309.206 292.621 C 309.206 292.377,308.525 291.896,307.692 291.551 C 306.860 291.206,306.179 290.761,306.179 290.561 C 306.179 289.292,301.968 288.977,300.935 290.168 C 298.442 293.044,296.857 293.163,294.270 290.668 L 292.308 288.777 287.949 288.796 C 285.496 288.806,283.290 289.062,282.905 289.381 C 280.580 291.303,275.809 290.137,272.176 286.761 C 270.849 285.527,267.288 283.876,266.424 284.094 C 266.234 284.142,264.489 283.982,262.547 283.739 C 257.074 283.055,257.232 283.017,256.482 285.195 C 255.064 289.312,251.256 288.341,251.837 284.011 C 252.162 281.583,251.348 280.713,248.280 280.209 C 247.092 280.015,245.464 279.528,244.663 279.128 C 243.862 278.729,242.508 278.353,241.655 278.293 C 240.801 278.233,240.102 278.063,240.102 277.914 C 240.101 277.765,239.704 277.614,239.218 277.578 C 237.702 277.465,229.431 275.404,228.505 274.908 C 228.020 274.649,227.495 274.565,227.338 274.721 C 227.181 274.878,226.758 274.824,226.398 274.602 C 226.038 274.379,225.398 274.134,224.977 274.059 C 221.398 273.413,215.976 272.314,214.461 271.928 C 213.443 271.668,211.419 271.302,209.963 271.115 C 208.507 270.928,207.186 270.566,207.027 270.310 C 206.869 270.054,206.529 269.975,206.270 270.135 C 206.012 270.295,205.801 270.223,205.801 269.976 C 205.801 269.729,205.280 269.248,204.643 268.908 C 201.477 267.214,203.946 264.444,207.871 265.286 C 210.892 265.934,212.205 265.420,212.652 263.415 C 214.133 256.778,214.315 256.443,216.496 256.314 C 218.118 256.219,218.479 256.347,218.252 256.938 M95.662 260.009 C 95.294 260.969,96.490 262.411,98.569 263.513 L 100.390 264.478 101.645 263.299 C 103.014 262.012,103.257 260.688,102.270 259.893 C 101.313 259.123,95.966 259.217,95.662 260.009 M240.796 263.058 C 244.584 264.641,241.440 271.093,237.216 270.406 C 233.085 269.735,233.564 263.709,237.831 262.660 C 238.386 262.524,238.869 262.386,238.904 262.354 C 238.940 262.321,239.791 262.639,240.796 263.058 M375.284 264.611 C 375.284 265.721,369.681 272.899,368.829 272.880 C 367.963 272.861,366.986 271.861,367.483 271.501 C 368.045 271.093,371.599 265.964,372.640 264.059 C 373.474 262.531,375.284 262.909,375.284 264.611 M188.344 265.448 C 189.039 266.072,189.646 266.923,189.693 267.339 C 189.849 268.715,189.666 269.357,189.119 269.357 C 188.822 269.357,188.238 269.697,187.822 270.113 C 186.266 271.669,183.496 270.963,182.674 268.802 C 181.328 265.260,185.432 262.831,188.344 265.448 M249.180 265.826 C 249.596 266.095,249.710 266.322,249.433 266.330 C 249.155 266.339,249.226 266.535,249.590 266.766 C 250.430 267.298,250.531 270.102,249.746 271.049 C 248.112 273.017,243.965 271.999,243.490 269.513 C 242.915 266.505,246.568 264.138,249.180 265.826 M60.530 268.509 C 61.501 268.866,63.430 269.682,64.817 270.323 C 66.204 270.964,67.907 271.747,68.600 272.063 C 72.769 273.965,75.158 275.629,75.158 276.630 C 75.158 278.652,72.605 279.297,69.861 277.969 C 69.306 277.700,67.037 276.749,64.817 275.854 C 62.598 274.959,60.668 274.070,60.530 273.878 C 60.391 273.685,59.823 273.385,59.269 273.211 C 57.823 272.757,55.766 270.782,55.573 269.663 C 55.263 267.867,57.421 267.364,60.530 268.509 M256.963 269.342 C 258.238 269.888,259.335 270.381,259.401 270.436 C 259.467 270.491,260.088 270.225,260.782 269.845 C 265.622 267.193,269.631 271.252,265.746 274.872 C 261.559 278.772,249.731 273.763,252.298 269.176 C 252.907 268.087,254.139 268.131,256.963 269.342 M201.242 271.087 C 201.899 272.315,201.518 275.628,200.773 275.168 C 200.550 275.030,200.262 275.320,200.133 275.812 C 199.456 278.401,194.199 276.590,194.199 273.768 C 194.199 269.814,199.484 267.802,201.242 271.087 M125.306 270.672 C 126.454 271.113,126.287 272.539,124.940 273.805 C 123.625 275.040,122.573 274.520,122.573 272.636 C 122.573 270.883,123.715 270.062,125.306 270.672 M132.911 274.653 C 131.979 281.319,131.951 280.888,133.340 281.236 C 135.276 281.722,135.686 281.167,135.703 278.028 C 135.722 274.748,136.496 273.392,138.350 273.392 C 141.854 273.392,141.996 274.432,139.092 278.835 C 134.299 286.103,126.770 287.876,127.424 281.582 C 127.560 280.268,127.736 277.831,127.814 276.166 C 127.892 274.502,127.994 272.845,128.039 272.485 C 128.084 272.125,128.859 271.515,129.760 271.129 C 132.021 270.162,133.333 271.629,132.911 274.653 M298.374 275.514 C 299.060 276.284,299.622 277.130,299.622 277.393 C 299.622 278.605,300.863 278.409,302.356 276.962 C 304.121 275.251,307.692 274.225,307.692 275.428 C 307.692 275.788,307.842 275.933,308.024 275.750 C 308.676 275.098,309.710 276.570,309.710 278.151 C 309.710 281.725,306.499 283.069,301.551 281.566 C 299.796 281.033,297.554 280.698,296.567 280.821 C 294.518 281.078,293.619 280.321,293.259 278.038 C 292.632 274.060,295.721 272.536,298.374 275.514 M173.884 275.610 C 176.166 277.579,174.064 281.031,170.135 281.768 C 166.020 282.540,164.566 276.373,168.483 274.760 C 169.880 274.185,172.757 274.638,173.884 275.610 M146.834 276.986 C 147.562 278.135,146.693 283.052,145.902 282.261 C 145.758 282.118,144.866 283.013,143.920 284.252 C 141.431 287.512,139.326 288.515,138.113 287.018 C 136.667 285.231,136.918 283.985,138.725 283.985 C 140.294 283.985,140.838 283.276,141.431 280.454 C 141.871 278.361,141.931 278.224,142.910 277.099 C 143.954 275.898,146.106 275.836,146.834 276.986 M98.865 277.602 C 98.865 278.940,97.898 279.931,95.334 281.220 C 94.363 281.708,93.402 282.360,93.198 282.668 C 92.994 282.976,92.824 283.068,92.820 282.872 C 92.816 282.677,91.938 282.825,90.870 283.202 C 86.106 284.883,80.300 283.496,80.218 280.657 C 80.158 278.600,84.911 276.625,87.045 277.820 C 87.545 278.099,88.310 278.145,88.744 277.922 C 91.933 276.279,98.865 276.060,98.865 277.602 M184.940 283.480 C 185.366 284.785,185.368 285.300,184.949 285.453 C 184.637 285.567,184.066 285.976,183.680 286.361 C 181.774 288.267,179.916 285.800,181.310 283.213 C 182.574 280.865,184.123 280.980,184.940 283.480 M73.377 286.970 C 77.571 288.265,83.581 291.142,85.857 292.943 C 86.818 293.703,88.237 294.779,89.011 295.334 C 89.784 295.889,91.045 296.853,91.812 297.477 C 93.931 299.198,100.788 304.075,102.009 304.729 C 102.603 305.047,103.330 305.510,103.625 305.759 C 108.867 310.180,128.580 321.201,145.019 328.900 C 148.540 330.549,154.351 335.727,154.351 337.216 C 154.351 337.577,154.536 337.949,154.762 338.041 C 154.989 338.134,156.371 339.741,157.835 341.614 C 161.218 345.943,162.389 346.018,166.452 342.166 C 167.425 341.243,168.383 340.486,168.581 340.484 C 168.778 340.481,169.392 339.993,169.946 339.398 C 170.938 338.334,173.878 338.238,177.806 339.143 C 178.361 339.271,181.992 340.103,185.876 340.992 C 192.230 342.448,194.262 342.899,198.149 343.720 C 198.795 343.856,199.703 344.082,200.166 344.221 C 200.630 344.361,201.576 344.582,202.270 344.713 C 202.963 344.844,204.779 345.215,206.305 345.537 C 207.831 345.859,209.533 346.195,210.088 346.283 C 215.485 347.143,218.128 347.618,218.384 347.777 C 218.758 348.008,233.192 349.422,239.092 349.806 C 241.450 349.960,249.168 350.196,256.242 350.332 C 272.946 350.653,272.041 350.485,277.287 354.241 C 278.752 355.291,280.348 356.312,280.833 356.511 C 281.700 356.867,287.302 360.442,291.334 363.213 C 296.803 366.971,306.233 368.957,308.750 366.881 C 309.280 366.444,314.355 365.195,315.603 365.195 C 317.049 365.195,310.431 372.193,297.918 383.894 C 296.011 385.678,294.081 387.496,293.631 387.933 C 293.181 388.371,291.450 389.851,289.786 391.222 C 286.056 394.293,284.378 395.707,281.745 398.000 C 280.619 398.981,278.797 400.449,277.698 401.261 C 276.598 402.074,275.339 403.087,274.901 403.513 C 274.463 403.939,273.471 404.741,272.697 405.296 C 270.709 406.720,264.111 411.763,263.808 412.089 C 263.670 412.239,262.540 413.041,261.299 413.873 C 260.058 414.704,256.366 417.257,253.095 419.546 C 249.824 421.835,246.925 423.707,246.651 423.707 C 246.378 423.707,246.154 423.913,246.154 424.164 C 246.154 424.415,244.962 425.322,243.506 426.180 C 242.049 427.038,238.815 429.019,236.318 430.581 C 230.282 434.358,225.377 437.296,221.690 439.342 C 217.401 441.723,216.048 442.495,212.525 444.572 C 210.814 445.581,209.169 446.406,208.868 446.406 C 208.568 446.406,208.323 446.646,208.323 446.940 C 208.323 447.234,208.142 447.363,207.920 447.226 C 207.699 447.089,207.221 447.161,206.857 447.386 C 206.197 447.794,198.080 443.851,187.390 437.929 C 184.615 436.392,181.324 434.586,180.076 433.915 C 178.827 433.244,177.465 432.408,177.049 432.058 C 176.633 431.707,175.101 430.763,173.645 429.960 C 172.189 429.156,170.997 428.329,170.997 428.121 C 170.996 427.913,170.732 427.743,170.410 427.743 C 169.777 427.743,166.393 425.722,161.837 422.623 C 160.267 421.555,158.753 420.681,158.474 420.681 C 158.194 420.681,157.890 420.511,157.797 420.303 C 157.635 419.938,155.255 418.248,148.298 413.559 C 146.494 412.344,144.718 411.065,144.351 410.717 C 143.983 410.369,142.621 409.363,141.324 408.480 C 140.027 407.598,138.799 406.634,138.595 406.338 C 138.369 406.010,138.219 405.997,138.209 406.305 C 138.200 406.619,138.054 406.609,137.823 406.279 C 137.619 405.986,136.549 405.078,135.445 404.261 C 133.137 402.552,133.727 403.017,125.851 396.697 C 110.909 384.706,95.497 369.749,89.533 361.453 C 88.979 360.681,87.827 359.108,86.975 357.957 C 86.122 356.806,84.987 355.069,84.452 354.098 C 83.918 353.127,83.367 352.219,83.228 352.081 C 83.090 351.942,82.182 350.240,81.211 348.298 C 80.240 346.356,79.332 344.653,79.193 344.515 C 78.720 344.041,74.653 335.191,74.653 334.634 C 74.653 334.465,74.333 333.611,73.941 332.737 C 73.549 331.863,72.851 329.959,72.389 328.505 C 71.927 327.052,71.336 325.731,71.076 325.570 C 70.815 325.409,70.738 325.056,70.905 324.785 C 71.072 324.515,70.935 323.963,70.600 323.559 C 70.264 323.155,70.120 322.825,70.278 322.825 C 70.437 322.825,70.261 322.087,69.888 321.185 C 69.271 319.694,65.730 306.821,65.275 304.414 C 65.076 303.364,63.843 296.958,63.332 294.325 C 62.603 290.567,61.722 283.679,61.904 283.162 C 62.035 282.790,63.489 283.175,66.079 284.267 C 68.265 285.189,71.549 286.405,73.377 286.970 M219.032 283.097 C 221.601 284.310,220.888 288.525,218.114 288.525 C 214.995 288.525,213.970 285.879,216.155 283.465 C 217.214 282.295,217.306 282.283,219.032 283.097 M151.971 284.918 C 153.288 286.456,153.356 287.449,152.200 288.259 C 150.000 289.799,147.289 289.092,147.289 286.977 C 147.289 284.154,150.216 282.867,151.971 284.918 M126.074 286.072 C 127.616 286.927,130.783 288.622,133.111 289.839 C 140.137 293.511,140.165 293.895,133.524 295.571 C 130.968 296.215,128.705 296.894,128.494 297.078 C 128.109 297.415,128.458 298.011,133.967 306.431 C 135.600 308.928,137.181 311.425,137.480 311.980 C 138.135 313.196,140.871 317.427,141.231 317.781 C 141.787 318.326,143.758 322.240,143.758 322.798 C 143.758 323.779,141.227 323.071,137.705 321.103 C 135.902 320.096,134.029 319.136,133.544 318.972 C 133.058 318.807,132.661 318.471,132.661 318.226 C 132.661 317.981,132.415 317.781,132.115 317.781 C 131.815 317.781,129.205 316.419,126.315 314.754 C 123.425 313.090,120.834 311.728,120.556 311.728 C 120.278 311.728,120.050 311.501,120.050 311.223 C 120.050 310.946,119.828 310.719,119.556 310.719 C 119.056 310.719,113.455 307.293,112.989 306.703 C 112.850 306.527,111.602 305.732,110.214 304.937 C 108.827 304.142,106.404 302.508,104.830 301.305 C 103.256 300.102,101.852 299.117,101.709 299.117 C 100.700 299.117,87.847 289.305,88.277 288.863 C 88.419 288.718,92.218 288.503,96.721 288.386 C 105.582 288.157,106.941 288.430,107.440 290.544 C 107.795 292.044,109.267 292.488,109.624 291.201 C 109.764 290.700,110.019 289.247,110.191 287.971 L 110.505 285.653 114.395 284.850 C 119.460 283.805,122.570 284.130,126.074 286.072 M380.381 285.894 C 380.500 287.811,380.203 289.820,379.714 290.416 C 379.429 290.763,379.326 291.047,379.485 291.047 C 379.848 291.047,375.946 298.593,375.052 299.622 C 374.690 300.038,374.239 300.888,374.049 301.510 C 373.860 302.133,373.436 302.927,373.107 303.276 C 372.778 303.624,371.496 305.271,370.257 306.936 C 369.019 308.600,367.657 310.320,367.231 310.758 C 366.805 311.195,365.649 312.444,364.662 313.532 C 362.203 316.243,356.565 321.121,352.902 323.707 C 349.061 326.420,347.563 326.505,346.228 324.086 C 344.347 320.677,341.197 322.485,341.428 326.841 C 341.609 330.260,340.383 331.413,334.426 333.426 C 331.791 334.316,328.840 335.332,327.869 335.683 C 326.898 336.034,324.741 336.721,323.077 337.210 C 321.412 337.699,319.369 338.346,318.537 338.647 C 317.705 338.948,316.792 339.229,316.509 339.271 C 316.226 339.313,314.069 339.807,311.717 340.368 C 293.522 344.712,288.971 344.748,289.156 340.542 C 289.275 337.849,289.217 337.698,288.020 337.574 C 286.050 337.370,285.301 338.174,285.223 340.572 C 285.185 341.769,285.117 343.006,285.073 343.321 C 284.980 343.990,284.118 344.298,278.689 345.600 C 265.978 348.649,265.056 348.533,266.606 344.081 C 267.479 341.576,266.982 340.412,265.186 340.757 C 263.572 341.068,262.299 342.590,262.058 344.495 C 261.670 347.564,261.155 347.742,252.078 347.948 C 244.025 348.130,242.848 348.033,225.725 345.779 C 220.074 345.035,215.149 343.854,214.233 343.024 C 213.604 342.453,214.400 340.984,215.338 340.984 C 216.584 340.984,217.402 339.965,217.402 338.415 C 217.402 335.774,214.278 336.406,212.803 339.345 C 211.007 342.926,209.428 343.198,200.794 341.415 C 196.731 340.575,196.155 339.647,198.229 337.283 C 199.965 335.307,200.012 335.122,199.027 334.138 C 197.429 332.540,194.997 334.044,194.005 337.246 C 193.252 339.674,187.049 339.934,182.794 337.714 C 181.992 337.296,181.043 336.953,180.684 336.951 C 177.773 336.938,184.691 332.527,187.768 332.435 C 188.253 332.420,188.651 332.182,188.651 331.904 C 188.651 331.627,188.821 331.436,189.029 331.480 C 192.553 332.226,199.172 326.205,198.544 322.825 C 198.415 322.131,198.293 321.427,198.272 321.260 C 198.221 320.844,195.267 317.781,194.918 317.781 C 194.536 317.781,191.013 315.138,190.550 314.505 C 190.346 314.226,190.176 314.170,190.172 314.382 C 190.167 314.593,188.918 313.751,187.396 312.511 C 185.874 311.271,184.171 310.012,183.613 309.713 C 181.944 308.820,182.302 307.505,184.111 307.881 C 184.943 308.055,186.257 308.329,187.030 308.491 C 189.669 309.042,190.864 307.412,191.089 302.955 C 191.202 300.716,191.505 299.117,191.816 299.117 C 192.110 299.117,192.209 298.977,192.037 298.805 C 191.629 298.397,193.118 296.917,194.079 296.776 C 198.475 296.131,200.314 302.308,196.728 305.675 C 195.913 306.440,194.616 309.637,194.778 310.481 C 195.111 312.207,196.626 311.962,197.546 310.033 C 198.391 308.261,199.980 307.426,201.440 307.986 C 202.060 308.224,202.150 308.928,201.916 311.722 C 201.255 319.606,205.009 322.613,208.378 316.898 C 211.221 312.077,213.418 312.607,214.386 318.348 C 215.116 322.671,215.720 322.994,218.625 320.613 C 222.377 317.538,227.675 319.112,228.811 323.639 C 229.104 324.805,231.526 326.013,232.682 325.570 C 233.024 325.438,233.757 324.158,234.311 322.726 C 235.471 319.723,236.900 319.023,240.304 319.788 C 242.922 320.376,245.649 317.431,245.649 314.018 C 245.649 311.563,251.187 310.482,253.515 312.483 C 257.350 315.777,255.187 319.606,247.948 322.338 C 244.264 323.729,243.632 324.136,243.632 325.120 C 243.632 328.360,245.486 328.748,248.434 326.126 C 250.502 324.286,251.702 324.407,251.702 326.453 C 251.702 328.811,253.856 329.523,254.842 327.491 C 255.536 326.062,256.083 325.949,259.521 326.522 C 260.353 326.661,261.488 326.491,262.043 326.144 C 264.664 324.504,266.835 325.337,266.835 327.981 C 266.835 328.474,267.006 328.878,267.216 328.878 C 267.426 328.878,267.878 329.513,268.222 330.289 C 268.838 331.680,272.960 334.186,273.592 333.554 C 273.760 333.386,273.897 332.617,273.897 331.844 C 273.897 329.925,274.897 327.881,275.869 327.812 C 284.172 327.229,285.590 326.665,286.633 323.535 L 287.289 321.564 291.098 321.700 C 295.464 321.856,296.804 321.052,296.507 318.456 C 296.308 316.716,294.444 316.293,292.164 317.472 C 290.854 318.150,290.574 318.150,289.609 317.474 C 287.910 316.284,288.189 314.173,290.175 313.198 C 293.460 311.586,292.425 307.959,288.783 308.322 C 285.857 308.614,284.010 306.078,285.068 303.219 C 285.806 301.225,290.928 303.010,291.030 305.296 C 291.098 306.828,293.569 305.513,293.569 303.945 C 293.569 302.994,293.925 301.859,294.361 301.423 C 294.797 300.987,294.968 300.621,294.740 300.610 C 294.512 300.599,294.928 300.263,295.664 299.863 C 299.865 297.581,301.243 302.003,297.237 304.911 C 293.143 307.884,294.844 312.909,299.117 310.467 C 300.577 309.632,303.067 309.507,304.161 310.214 C 304.578 310.483,304.720 310.707,304.478 310.711 C 304.236 310.715,304.299 311.034,304.619 311.419 C 306.025 313.113,302.864 315.763,299.437 315.763 C 298.460 315.763,298.375 317.156,299.177 320.043 C 299.728 322.029,299.709 322.076,297.661 323.840 C 295.158 325.996,295.082 326.874,297.225 328.922 C 299.038 330.654,302.904 330.725,304.745 329.058 C 305.208 328.639,305.890 328.251,306.261 328.195 C 306.632 328.139,307.195 327.930,307.512 327.732 C 309.158 326.703,315.632 329.345,314.425 330.552 C 314.277 330.700,314.844 331.177,315.684 331.611 C 318.595 333.117,320.288 331.060,318.700 327.946 C 317.121 324.849,317.795 322.320,320.199 322.320 C 321.709 322.320,322.510 323.270,323.041 325.689 C 323.716 328.760,327.197 330.441,329.709 328.909 C 332.313 327.322,332.560 326.704,332.185 322.701 C 331.615 316.597,334.322 315.231,338.406 319.562 C 341.648 322.999,345.770 321.220,344.334 317.004 C 342.810 312.532,343.311 310.983,346.342 310.805 C 348.393 310.685,350.522 314.099,348.987 315.048 C 348.335 315.451,348.459 318.497,349.155 319.193 C 350.680 320.718,352.746 319.282,355.303 314.919 C 356.919 312.161,359.753 309.206,360.780 309.206 C 361.788 309.206,372.257 297.438,372.257 296.306 C 372.257 295.964,371.576 295.448,370.744 295.158 C 367.417 293.998,368.963 290.951,372.933 290.846 C 374.777 290.797,376.050 289.153,376.209 286.615 C 376.348 284.403,380.248 283.729,380.381 285.894 M176.108 285.364 C 177.739 286.995,173.390 290.999,170.716 290.328 C 168.904 289.873,168.873 287.510,170.655 285.591 C 171.785 284.373,174.983 284.239,176.108 285.364 M228.824 288.398 C 230.032 289.482,230.207 291.356,229.230 292.749 C 228.828 293.323,228.492 293.572,228.484 293.303 C 228.476 293.033,228.240 293.205,227.961 293.684 C 227.681 294.164,227.517 294.618,227.597 294.693 C 227.677 294.768,226.665 295.822,225.350 297.034 C 222.994 299.206,222.940 299.226,221.667 298.392 C 219.635 297.060,219.605 296.172,221.474 292.636 C 224.172 287.534,226.418 286.239,228.824 288.398 M187.880 290.323 C 188.912 291.436,189.007 291.826,188.560 293.108 C 187.057 297.418,181.462 295.831,182.305 291.335 C 182.788 288.761,185.908 288.195,187.880 290.323 M354.107 289.796 C 356.920 293.185,351.575 297.708,348.569 294.482 C 347.392 293.219,347.265 292.090,348.172 290.954 C 349.694 289.046,352.956 288.409,354.107 289.796 M157.285 291.680 C 157.389 292.591,157.170 293.176,156.648 293.376 C 155.539 293.801,154.351 292.677,154.351 291.204 C 154.351 289.285,157.060 289.725,157.285 291.680 M241.194 296.261 C 241.846 298.342,242.047 298.384,246.316 297.322 C 249.969 296.414,251.690 300.506,248.849 303.346 C 246.225 305.970,243.776 305.727,241.493 302.618 C 240.589 301.386,239.510 300.303,239.097 300.212 C 238.683 300.120,238.185 299.786,237.989 299.470 C 237.794 299.153,237.472 299.056,237.274 299.254 C 237.077 299.451,236.610 299.360,236.238 299.051 C 235.866 298.742,235.561 298.647,235.561 298.839 C 235.561 299.032,235.221 298.849,234.805 298.433 C 233.082 296.710,234.384 293.167,237.123 292.123 C 238.604 291.558,240.244 293.225,241.194 296.261 M168.375 292.692 C 168.666 293.043,168.977 294.232,169.067 295.336 C 169.275 297.883,170.634 298.359,171.403 296.154 C 173.055 291.415,179.270 292.918,178.348 297.833 C 177.606 301.788,173.948 302.403,168.222 299.534 C 164.628 297.733,163.746 296.481,164.331 294.005 C 164.687 292.498,167.465 291.597,168.375 292.692 M119.490 293.715 C 118.661 294.347,118.931 296.155,119.948 296.784 C 120.753 297.281,122.054 295.389,121.738 294.181 C 121.412 292.936,120.705 292.790,119.490 293.715 M276.419 294.769 C 276.419 295.034,276.559 295.110,276.731 294.938 C 276.903 294.766,277.380 294.962,277.791 295.373 C 279.087 296.670,278.180 298.415,275.536 299.710 C 273.298 300.805,273.130 301.024,272.985 303.018 C 272.714 306.756,268.536 308.049,265.360 305.378 C 263.158 303.524,263.387 302.677,267.075 299.051 C 271.430 294.769,276.419 292.482,276.419 294.769 M318.285 294.607 C 318.285 294.901,318.487 295.017,318.733 294.865 C 319.776 294.220,319.648 297.810,318.588 298.953 C 316.404 301.309,311.475 300.304,312.472 297.707 C 312.617 297.327,312.736 296.805,312.736 296.547 C 312.736 295.830,315.866 294.077,317.150 294.075 C 317.774 294.074,318.285 294.314,318.285 294.607 M156.366 296.595 C 157.059 296.595,160.404 300.056,160.404 300.773 C 160.404 302.956,158.457 303.093,155.576 301.111 C 152.636 299.088,152.405 295.477,155.275 296.383 C 155.644 296.500,156.135 296.595,156.366 296.595 M150.694 300.360 C 152.150 301.038,153.342 301.830,153.342 302.121 C 153.342 302.411,153.590 302.648,153.892 302.648 C 154.195 302.648,155.047 303.123,155.784 303.704 C 156.521 304.285,159.735 306.650,162.926 308.959 C 166.116 311.269,169.092 313.486,169.539 313.887 C 169.987 314.287,171.065 315.036,171.935 315.550 C 172.806 316.064,173.518 316.648,173.518 316.847 C 173.518 317.045,173.916 317.339,174.401 317.500 C 174.887 317.660,176.367 318.809,177.691 320.052 C 184.087 326.060,179.947 328.787,173.389 322.887 C 171.934 321.578,170.063 319.987,169.231 319.351 C 168.398 318.714,166.583 317.206,165.195 315.998 C 155.404 307.476,152.333 305.164,152.333 306.317 C 152.333 307.455,156.828 311.476,170.693 322.740 C 173.180 324.760,173.680 325.570,173.625 327.487 C 173.511 331.504,171.051 331.330,166.557 326.986 C 164.619 325.113,160.843 321.473,158.165 318.896 C 146.952 308.104,142.837 302.207,144.893 299.872 C 145.824 298.814,147.715 298.973,150.694 300.360 M185.549 299.671 C 188.661 300.756,187.172 305.257,183.823 304.889 C 181.117 304.592,180.363 300.877,182.773 299.711 C 183.370 299.422,183.882 299.170,183.910 299.151 C 183.938 299.133,184.675 299.366,185.549 299.671 M325.005 301.338 C 329.016 305.666,321.847 310.003,315.172 307.287 C 313.133 306.457,313.866 304.943,317.654 302.161 C 321.469 299.359,323.011 299.187,325.005 301.338 M120.429 301.372 C 118.919 303.449,119.659 306.179,121.733 306.179 C 124.033 306.179,124.883 303.506,123.301 301.247 C 122.299 299.817,121.535 299.850,120.429 301.372 M142.423 305.296 C 143.422 306.475,146.319 309.937,148.861 312.989 C 151.402 316.040,153.624 318.651,153.797 318.789 C 153.970 318.928,155.131 320.288,156.375 321.811 C 158.576 324.505,160.628 326.926,161.675 328.065 C 166.235 333.028,167.355 337.957,163.924 337.957 C 162.535 337.957,162.114 337.545,156.588 330.763 C 156.190 330.275,155.864 329.701,155.864 329.489 C 155.864 329.276,155.192 328.513,154.371 327.793 C 153.550 327.072,153.020 326.341,153.194 326.167 C 153.368 325.993,153.232 325.851,152.892 325.851 C 152.552 325.851,152.405 325.638,152.566 325.378 C 152.727 325.117,152.544 324.720,152.160 324.495 C 151.775 324.270,151.056 323.291,150.561 322.320 C 150.066 321.349,149.245 320.191,148.737 319.747 C 148.228 319.303,147.953 318.797,148.127 318.624 C 148.300 318.451,148.070 318.166,147.616 317.992 C 147.162 317.817,146.916 317.472,147.069 317.223 C 147.223 316.975,147.108 316.772,146.814 316.772 C 146.520 316.772,146.280 316.431,146.280 316.015 C 146.280 315.599,146.047 315.259,145.763 315.259 C 145.479 315.259,145.011 314.634,144.723 313.871 C 144.200 312.484,140.808 307.181,140.108 306.658 C 139.905 306.506,139.592 305.655,139.415 304.767 C 138.949 302.436,140.183 302.653,142.423 305.296 M166.811 303.767 C 167.587 304.105,169.114 305.126,170.204 306.037 C 171.295 306.947,172.389 307.692,172.636 307.692 C 172.884 307.692,173.385 307.976,173.751 308.323 C 174.652 309.178,175.412 309.719,184.645 316.078 C 189.867 319.675,191.199 321.498,190.073 323.510 C 189.139 325.179,184.719 323.880,182.598 321.312 C 182.459 321.144,180.303 319.543,177.806 317.754 C 175.309 315.965,172.881 314.161,172.410 313.745 C 171.939 313.329,169.515 311.513,167.022 309.710 C 162.265 306.268,161.707 305.618,162.192 304.090 C 162.543 302.984,164.671 302.835,166.811 303.767 M280.454 304.062 C 282.611 305.114,282.972 306.682,281.397 308.150 C 279.229 310.170,275.243 308.674,275.513 305.942 C 275.756 303.484,277.730 302.733,280.454 304.062 M230.270 306.692 C 230.444 306.974,230.855 307.051,231.182 306.863 C 231.510 306.675,231.619 306.699,231.424 306.915 C 231.229 307.131,231.399 307.638,231.802 308.041 C 233.337 309.576,231.636 313.652,229.405 313.784 C 229.046 313.805,228.364 313.897,227.890 313.988 C 226.442 314.267,224.492 311.885,224.717 310.112 C 225.077 307.266,229.095 304.791,230.270 306.692 M264.551 310.697 C 264.715 310.962,265.150 311.064,265.518 310.923 C 266.828 310.420,267.535 313.431,266.580 315.445 C 265.431 317.866,261.248 319.341,260.221 317.687 C 260.051 317.414,259.711 317.226,259.464 317.271 C 258.561 317.435,258.123 314.421,258.834 312.937 C 259.865 310.788,263.683 309.292,264.551 310.697 M277.328 312.544 C 279.207 314.628,278.391 316.692,275.560 317.017 C 272.869 317.326,271.505 314.719,273.138 312.388 C 274.051 311.085,276.080 311.160,277.328 312.544 M284.576 312.562 C 286.353 314.171,285.011 316.772,282.403 316.772 C 280.571 316.772,279.944 314.851,281.167 312.985 C 282.123 311.525,283.272 311.383,284.576 312.562 M214.202 328.287 C 213.173 329.424,213.108 331.837,214.097 332.216 C 215.132 332.613,217.368 330.841,217.386 329.609 C 217.419 327.497,215.600 326.742,214.202 328.287 M231.021 329.887 C 230.026 330.882,229.552 333.615,229.953 336.053 C 230.333 338.370,235.129 338.035,236.801 335.575 C 239.500 331.603,234.362 326.546,231.021 329.887 M284.590 329.483 C 283.452 330.621,284.264 334.931,285.617 334.931 C 286.628 334.931,289.029 332.472,289.029 331.437 C 289.029 329.679,285.811 328.262,284.590 329.483 M307.985 331.963 C 306.229 333.344,306.376 335.343,308.313 336.425 C 311.212 338.045,314.102 334.279,311.758 331.935 C 310.445 330.621,309.683 330.627,307.985 331.963 M253.216 332.034 C 253.216 332.105,253.017 332.856,252.774 333.703 C 251.977 336.482,254.125 338.009,256.873 336.617 C 259.367 335.352,257.941 331.904,254.923 331.904 C 253.984 331.904,253.216 331.962,253.216 332.034 M245.558 339.218 C 245.242 339.912,244.819 340.479,244.618 340.479 C 243.647 340.479,244.571 343.794,245.706 344.381 C 248.791 345.977,251.665 341.389,249.085 338.986 C 247.599 337.601,246.254 337.690,245.558 339.218 M332.896 341.528 C 332.561 342.338,332.073 343.001,331.813 343.001 C 331.553 343.001,331.480 343.228,331.652 343.506 C 331.823 343.783,331.710 344.010,331.400 344.010 C 331.090 344.010,330.976 344.237,331.148 344.515 C 331.319 344.792,331.274 345.019,331.048 345.019 C 330.822 345.019,330.311 345.757,329.912 346.658 C 329.513 347.560,328.776 348.738,328.275 349.275 C 327.774 349.813,327.364 350.536,327.364 350.881 C 327.364 352.260,324.760 352.267,321.709 350.897 C 320.797 350.487,318.672 349.692,316.986 349.130 C 304.820 345.072,304.921 344.554,318.285 342.478 C 320.366 342.154,322.636 341.703,323.329 341.475 C 324.023 341.247,325.839 340.786,327.364 340.451 C 328.890 340.117,330.366 339.670,330.643 339.459 C 332.664 337.920,333.915 339.068,332.896 341.528 M271.980 340.076 C 271.057 340.998,271.217 343.981,272.210 344.362 C 273.537 344.872,276.090 341.750,275.401 340.462 C 274.810 339.358,272.912 339.144,271.980 340.076 M295.645 348.602 C 296.306 348.967,297.154 349.203,297.529 349.126 C 297.925 349.045,298.062 349.226,297.856 349.559 C 297.650 349.893,297.786 350.069,298.184 349.982 C 299.576 349.677,310.574 355.507,310.890 356.717 C 311.255 358.111,310.106 359.993,308.422 360.760 C 307.743 361.069,307.188 361.490,307.188 361.696 C 307.188 362.326,304.132 363.178,301.872 363.178 C 299.579 363.178,293.102 360.085,286.376 355.778 C 284.500 354.577,282.781 353.594,282.554 353.594 C 281.579 353.594,279.865 351.125,280.171 350.160 C 280.535 349.013,281.617 348.617,285.498 348.212 C 287.024 348.053,288.386 347.813,288.525 347.679 C 288.992 347.227,294.432 347.932,295.645 348.602 M207.314 352.959 C 207.314 353.441,206.749 356.563,206.059 359.894 C 201.556 381.634,199.589 392.981,200.213 393.605 C 201.353 394.746,202.137 393.467,202.490 389.890 C 202.687 387.889,203.058 385.700,203.314 385.026 C 203.571 384.351,203.877 383.027,203.994 382.084 C 204.613 377.093,205.347 376.774,208.825 379.986 C 212.163 383.068,215.813 385.130,218.789 385.616 C 221.853 386.115,221.772 384.694,218.693 383.919 C 217.461 383.609,216.311 383.124,216.136 382.842 C 215.962 382.560,215.608 382.460,215.350 382.619 C 215.092 382.779,214.880 382.556,214.880 382.123 C 214.880 381.691,214.664 381.337,214.399 381.337 C 214.134 381.337,213.361 380.826,212.681 380.202 C 212.002 379.578,211.140 378.811,210.767 378.498 C 209.834 377.717,208.108 375.592,208.156 375.284 C 208.177 375.145,208.079 374.731,207.938 374.363 C 207.636 373.576,208.705 369.735,209.226 369.735 C 209.423 369.734,210.265 369.171,211.097 368.483 C 211.929 367.796,212.837 367.049,213.115 366.824 C 214.685 365.549,221.534 361.160,221.952 361.160 C 222.224 361.160,222.446 360.958,222.446 360.711 C 222.446 360.463,223.343 359.902,224.439 359.464 C 227.440 358.263,228.204 355.612,225.548 355.612 C 224.610 355.612,217.341 360.250,214.343 362.762 C 213.077 363.823,211.800 364.691,211.505 364.691 C 211.210 364.691,210.686 365.032,210.340 365.448 C 207.907 368.380,207.445 365.367,209.334 358.890 C 211.266 352.266,211.261 352.081,209.145 352.081 C 207.741 352.081,207.314 352.286,207.314 352.959 M164.187 354.748 C 163.162 355.989,160.186 364.923,159.278 369.483 C 158.517 373.302,155.580 375.039,153.328 373.002 C 151.866 371.679,150.877 372.568,150.884 375.200 C 150.894 378.709,148.223 384.764,144.543 389.578 C 141.338 393.769,140.963 384.156,144.068 377.410 C 145.006 375.371,144.812 373.079,143.681 372.865 C 143.076 372.750,142.643 373.368,142.094 375.130 C 138.764 385.827,139.206 393.443,143.158 393.443 C 145.526 393.443,152.837 381.689,152.837 377.881 C 152.837 376.601,153.110 376.438,155.612 376.218 C 156.863 376.108,157.592 376.246,157.532 376.583 C 157.479 376.882,157.304 378.217,157.144 379.551 C 156.984 380.885,156.602 382.974,156.294 384.195 C 154.780 390.209,157.722 394.201,161.393 391.112 C 162.843 389.891,163.032 389.852,163.854 390.595 C 164.607 391.277,165.894 391.724,167.591 391.892 C 170.439 392.174,162.602 410.279,159.351 410.929 C 157.342 411.331,158.030 412.610,160.255 412.610 C 163.355 412.610,166.156 408.478,168.461 400.504 C 169.062 398.424,169.860 395.700,170.233 394.451 C 171.346 390.727,172.174 387.675,172.217 387.137 C 172.239 386.860,172.520 385.952,172.840 385.120 C 174.664 380.388,174.720 380.122,174.752 376.062 C 174.778 372.764,174.698 372.507,173.419 371.787 C 168.572 369.057,160.660 377.936,161.226 385.471 C 161.439 388.307,160.241 390.495,158.922 389.679 C 157.911 389.054,159.522 376.412,160.961 373.684 C 161.205 373.221,161.540 371.972,161.704 370.910 C 162.005 368.963,163.599 363.407,164.472 361.263 C 164.731 360.625,164.943 359.661,164.943 359.119 C 164.943 358.577,165.132 358.134,165.363 358.134 C 165.878 358.134,166.959 354.769,166.569 354.379 C 166.086 353.896,164.714 354.109,164.187 354.748 M237.767 368.948 C 236.899 369.326,235.537 370.452,234.740 371.450 C 233.372 373.165,232.030 373.832,232.030 372.798 C 232.030 371.940,230.498 370.783,229.746 371.072 C 229.338 371.228,229.004 371.924,229.004 372.617 C 229.004 373.310,228.687 375.158,228.300 376.724 C 225.456 388.230,225.101 390.921,226.430 390.921 C 227.392 390.921,228.499 389.305,228.499 387.901 C 228.499 382.622,236.469 370.744,240.011 370.744 C 241.311 370.744,241.490 372.195,240.403 373.914 C 238.382 377.112,237.308 387.897,238.787 390.154 C 240.206 392.319,243.491 391.283,246.869 387.604 L 248.996 385.287 250.375 387.095 C 251.942 389.149,253.026 389.342,254.867 387.894 C 256.511 386.600,256.546 386.605,258.589 388.398 C 259.712 389.384,260.858 389.912,261.877 389.912 C 263.822 389.912,263.709 391.827,261.367 398.586 C 258.965 405.520,257.341 408.162,254.834 409.216 C 252.991 409.991,253.350 411.223,255.420 411.223 C 259.373 411.223,262.698 405.481,265.572 393.695 C 266.316 390.643,267.812 385.512,268.897 382.292 C 272.323 372.127,271.146 367.931,265.356 369.665 C 263.240 370.299,260.047 372.301,260.199 372.898 C 260.254 373.111,259.865 373.750,259.336 374.319 C 258.046 375.704,256.242 380.522,256.242 382.585 C 256.242 385.480,252.179 387.153,251.921 384.363 C 251.757 382.591,252.579 378.927,253.675 376.545 C 255.386 372.825,255.428 369.436,253.749 370.474 C 253.157 370.840,250.661 375.970,249.937 378.310 C 249.367 380.150,246.499 384.309,243.993 386.930 C 239.524 391.603,238.809 384.106,242.826 374.685 C 244.783 370.094,242.107 367.059,237.767 368.948 M268.017 373.784 C 267.974 374.470,267.671 375.939,267.345 377.049 C 267.019 378.159,266.631 379.691,266.484 380.454 C 266.336 381.217,266.015 381.841,265.769 381.841 C 265.523 381.841,265.322 382.325,265.322 382.917 C 265.322 384.448,263.378 387.393,262.380 387.374 C 258.669 387.303,257.957 382.012,260.965 376.859 C 263.244 372.953,268.206 370.790,268.017 373.784 M172.786 374.819 C 173.127 375.371,172.156 379.653,171.481 380.580 C 171.278 380.858,170.945 381.879,170.741 382.850 C 169.475 388.857,166.045 391.007,164.213 386.943 C 162.575 383.312,165.128 377.295,169.231 375.118 C 171.014 374.172,172.318 374.062,172.786 374.819 M177.907 387.708 C 177.362 388.254,177.489 390.821,178.080 391.186 C 178.956 391.728,180.137 390.335,179.975 388.950 C 179.829 387.696,178.636 386.980,177.907 387.708 " stroke="none" fill="#000000" fill-rule="evenodd"></path></g></svg>